Coordinates
version=1
nRows=21
nColumns=12
inDegrees=yes

Units are S.I. units (second, meters, Newtons, ...)
Angles are in degrees

endheader
time	SC_y	SC_z	SC_x	AC_y	AC_z	AC_x	GH_y	GH_z	GH_yy	EL_x	PS_y
       0.0              -51.13          30.07          30.92          63.18         -15.18         -9.989          1.111         -1.398          -57.9          81.85          136.4
  0.001324              -51.13          30.07          30.93          63.18         -15.18         -9.987          1.126         -1.388         -57.87          81.85          136.4
  0.002647              -51.12          30.07          30.93          63.18         -15.17         -9.984          1.143         -1.377         -57.84          81.84          136.4
  0.003971              -51.12          30.07          30.94          63.18         -15.17         -9.981           1.16         -1.366         -57.81          81.84          136.3
  0.005294              -51.12          30.08          30.95          63.18         -15.17         -9.978          1.178         -1.353         -57.78          81.84          136.3
  0.006618              -51.11          30.08          30.96          63.18         -15.17         -9.975          1.198          -1.34         -57.74          81.83          136.3
  0.007941              -51.11          30.08          30.97          63.18         -15.16         -9.971          1.219         -1.326          -57.7          81.83          136.3
  0.009265               -51.1          30.08          30.98          63.18         -15.16         -9.968          1.242         -1.311         -57.66          81.82          136.3
   0.01059               -51.1          30.08          30.99          63.18         -15.16         -9.964          1.266         -1.295         -57.62          81.82          136.3
   0.01191              -51.09          30.08           31.0          63.18         -15.15         -9.959          1.292         -1.278         -57.57          81.82          136.3
   0.01324              -51.09          30.08          31.01          63.19         -15.15         -9.955          1.319          -1.26         -57.52          81.81          136.3
   0.01456              -51.08          30.09          31.03          63.19         -15.14          -9.95          1.349          -1.24         -57.46           81.8          136.2
   0.01588              -51.07          30.09          31.04          63.19         -15.14         -9.945          1.381         -1.218          -57.4           81.8          136.2
   0.01721              -51.07          30.09          31.06          63.19         -15.14         -9.939          1.416         -1.195         -57.34          81.79          136.2
   0.01853              -51.06          30.09          31.07          63.19         -15.13         -9.933          1.454          -1.17         -57.27          81.79          136.2
   0.01985              -51.05          30.09          31.09          63.19         -15.12         -9.926          1.495         -1.143         -57.19          81.78          136.2
   0.02118              -51.04           30.1          31.11          63.19         -15.12         -9.919          1.539         -1.113         -57.11          81.77          136.1
    0.0225              -51.03           30.1          31.13          63.19         -15.11         -9.911          1.587         -1.081         -57.02          81.76          136.1
   0.02382              -51.02           30.1          31.15          63.19          -15.1         -9.902           1.64         -1.046         -56.92          81.75          136.1
   0.02515               -51.0           30.1          31.18          63.19         -15.09         -9.893          1.698         -1.008         -56.82          81.74          136.0
   0.02647              -50.99          30.11          31.21          63.19         -15.09         -9.882          1.762        -0.9656          -56.7          81.73          136.0
